<svg width="64" height="64" viewBox="0 0 64 64">
  <path d="M32,16c-8.837,0-16,7.163-16,16v16h32V32C48,23.163 40.837,16 32,16z" fill="#FCE94F"/>
  <path d="M48,48h-8v-8h8z" fill="#333"/>
  <path d="M39.05,43.95c-0.707,0.707-1.77,0.707-2.477,0l-6.045-6.045c-0.707-0.707-0.707-1.77 0-2.477l1.414-1.414c0.707-0.707,1.77-0.707,2.477,0l4.568,4.568c0.354,0.354,0.811,0.531,1.268,0.531s0.914-0.177,1.268-0.531z" fill="#333"/>
  <path d="M16,56v8h32v-8z" fill="#1976D2"/>
  <rect x="20" y="60" width="24" height="4" fill="#FFF"/>
</svg>