<svg xmlns="http://www.w3.org/2000/svg" xmlns:xlink="http://www.w3.org/1999/xlink" width="490" zoomAndPan="magnify" viewBox="0 0 367.5 167.999997" height="224" preserveAspectRatio="xMidYMid meet" version="1.0"><defs><g/><clipPath id="a8751a476b"><path d="M 198 87 L 244.277344 87 L 244.277344 133.527344 L 198 133.527344 Z M 198 87 " clip-rule="nonzero"/></clipPath><clipPath id="5542ee9cda"><path d="M 152.902344 42.148438 L 237 42.148438 L 237 126 L 152.902344 126 Z M 152.902344 42.148438 " clip-rule="nonzero"/></clipPath></defs><g fill="#e9e6e1" fill-opacity="1"><g transform="translate(52.702304, 105.974996)"><g><path d="M 41.21875 -22.898438 C 41.21875 -14.070312 35.554688 -6.078125 26.644531 -6.078125 C 17.820312 -6.078125 11.742188 -13.90625 11.742188 -22.230469 C 11.742188 -30.726562 17.902344 -38.300781 26.480469 -38.300781 C 34.890625 -38.300781 41.132812 -30.890625 41.21875 -22.898438 Z M 27.3125 18.734375 C 40.382812 18.734375 47.710938 10.742188 47.710938 -0.25 L 47.710938 -41.714844 C 47.710938 -43.382812 46.296875 -44.796875 44.546875 -44.796875 C 42.964844 -44.796875 41.550781 -43.546875 41.46875 -41.964844 L 41.132812 -37.386719 C 38.300781 -40.96875 32.558594 -45.296875 25.0625 -45.296875 C 12.65625 -45.296875 4.328125 -33.722656 4.328125 -21.898438 C 4.328125 -9.574219 13.324219 0.914062 25.148438 0.914062 C 31.308594 0.914062 36.554688 -1.914062 40.300781 -6.660156 L 40.300781 -2.164062 C 40.300781 8.660156 34.890625 12.074219 27.644531 12.074219 C 18.152344 12.074219 13.65625 6.328125 10.824219 6.328125 C 9.492188 6.328125 7.828125 7.660156 7.828125 9.742188 C 7.828125 10.492188 8.078125 11.15625 8.910156 11.992188 C 13.238281 16.570312 20.566406 18.734375 27.3125 18.734375 Z M 27.3125 18.734375 "/></g></g></g><g fill="#e9e6e1" fill-opacity="1"><g transform="translate(113.315302, 105.974996)"><g><path d="M 25.394531 -45.214844 C 19.484375 -45.214844 16.152344 -40.550781 13.574219 -35.636719 L 13.15625 -41.714844 C 13.074219 -43.382812 11.65625 -44.714844 9.992188 -44.714844 C 8.160156 -44.714844 6.746094 -43.296875 6.746094 -41.46875 L 6.746094 -3.246094 C 6.746094 -1.25 8.410156 0.5 10.492188 0.5 C 12.574219 0.5 14.15625 -1.164062 14.15625 -3.246094 L 14.15625 -22.816406 C 14.15625 -31.726562 17.070312 -38.21875 25.3125 -38.21875 C 27.976562 -38.21875 28.558594 -39.800781 28.558594 -42.714844 C 28.558594 -44.964844 26.894531 -45.214844 25.394531 -45.214844 Z M 25.394531 -45.214844 "/></g></g></g><g fill="#e9e6e1" fill-opacity="1"><g transform="translate(147.545196, 105.974996)"><g/></g></g><g fill="#e9e6e1" fill-opacity="1"><g transform="translate(180.433277, 105.974996)"><g/></g></g><g fill="#e9e6e1" fill-opacity="1"><g transform="translate(213.321358, 105.974996)"><g/></g></g><g fill="#e9e6e1" fill-opacity="1"><g transform="translate(246.222342, 105.974996)"><g><path d="M 19.652344 -11.65625 L 8.910156 -42.382812 C 8.410156 -43.796875 7.160156 -44.714844 5.496094 -44.714844 C 3.496094 -44.714844 2.082031 -43.050781 2.082031 -41.21875 C 2.082031 -40.882812 2.082031 -40.46875 2.25 -40.132812 L 15.570312 -2 C 16.070312 -0.5 17.484375 0.5 19.402344 0.5 C 20.898438 0.5 22.316406 -0.417969 22.898438 -1.832031 L 33.890625 -28.726562 L 44.878906 -1.832031 C 45.464844 -0.417969 46.796875 0.5 48.378906 0.5 C 50.210938 0.5 51.625 -0.5 52.125 -2 L 65.449219 -40.21875 C 65.53125 -40.550781 65.613281 -40.96875 65.613281 -41.300781 C 65.613281 -43.050781 64.117188 -44.714844 62.199219 -44.714844 C 60.617188 -44.714844 59.285156 -43.796875 58.871094 -42.464844 L 48.128906 -11.65625 L 36.886719 -38.800781 C 36.304688 -40.132812 35.136719 -40.800781 33.890625 -40.800781 C 32.558594 -40.800781 31.390625 -40.132812 30.890625 -38.800781 Z M 19.652344 -11.65625 "/></g></g></g><g clip-path="url(#a8751a476b)"><path fill="#00abff" d="M 244.078125 105.578125 C 244.078125 106.453125 243.503906 107.203125 242.710938 107.464844 L 224.257812 113.507812 L 218.214844 131.960938 C 217.953125 132.753906 217.199219 133.328125 216.332031 133.328125 C 215.480469 133.328125 214.765625 132.792969 214.488281 132.058594 L 198.628906 90.4375 C 198.527344 90.214844 198.492188 89.980469 198.492188 89.722656 C 198.492188 88.632812 199.382812 87.738281 200.472656 87.738281 C 200.730469 87.738281 200.96875 87.777344 201.1875 87.878906 L 242.8125 103.738281 C 243.542969 104.011719 244.078125 104.722656 244.078125 105.578125 Z M 244.078125 105.578125 " fill-opacity="1" fill-rule="nonzero"/></g><g clip-path="url(#5542ee9cda)"><path fill="#e9e6e1" d="M 194.691406 125.730469 C 171.648438 125.730469 152.902344 106.980469 152.902344 83.941406 C 152.902344 60.898438 171.648438 42.148438 194.691406 42.148438 C 217.730469 42.148438 236.480469 60.898438 236.480469 83.941406 C 236.480469 85.800781 236.359375 87.632812 236.117188 89.378906 C 235.835938 91.457031 233.910156 92.90625 231.839844 92.625 C 229.757812 92.339844 228.304688 90.421875 228.59375 88.34375 C 228.789062 86.9375 228.882812 85.457031 228.882812 83.941406 C 228.882812 65.089844 213.546875 49.75 194.691406 49.75 C 175.835938 49.75 160.5 65.089844 160.5 83.941406 C 160.5 102.789062 175.835938 118.132812 194.691406 118.132812 C 196.195312 118.132812 197.675781 118.03125 199.097656 117.839844 C 201.167969 117.539062 203.09375 119.007812 203.375 121.085938 C 203.65625 123.164062 202.203125 125.078125 200.125 125.363281 C 198.363281 125.605469 196.539062 125.730469 194.691406 125.730469 Z M 194.691406 125.730469 " fill-opacity="1" fill-rule="nonzero"/></g><path fill="#e9e6e1" d="M 192.886719 106.675781 C 192.769531 106.675781 192.652344 106.671875 192.53125 106.660156 C 180.738281 105.566406 171.839844 95.796875 171.839844 83.9375 C 171.839844 71.339844 182.085938 61.089844 194.6875 61.089844 C 206.585938 61.089844 216.355469 70.003906 217.414062 81.828125 C 217.597656 83.917969 216.0625 85.761719 213.96875 85.949219 C 211.8125 86.105469 210.03125 84.589844 209.84375 82.503906 C 209.140625 74.625 202.625 68.683594 194.6875 68.683594 C 186.28125 68.683594 179.4375 75.519531 179.4375 83.933594 C 179.4375 91.84375 185.371094 98.359375 193.234375 99.09375 C 195.324219 99.289062 196.859375 101.136719 196.667969 103.226562 C 196.484375 105.199219 194.828125 106.675781 192.886719 106.675781 Z M 192.886719 106.675781 " fill-opacity="1" fill-rule="nonzero"/></svg>